<svg height="448pt" viewBox="-16 0 448 448.33587" width="448pt" xmlns="http://www.w3.org/2000/svg"><path d="m96.167969 112.335938h96v16h-96zm0 0"/><path d="m196.167969 16.65625c-10.886719.199219-21.539063-3.171875-30.328125-9.601562-12.929688-9.40625-30.453125-9.40625-43.382813 0-8.78125 6.429687-19.429687 9.804687-30.3125 9.601562-10.824219.210938-21.425781-3.078125-30.222656-9.382812-4.125-2.96875-8.800781-5.085938-13.753906-6.21875v71.28125c0 13.253906 10.746093 24 24 24h14.9375l-6.875-55.007813 15.875-1.984375 7.125 56.992188h32.9375v-56h16v56h32.9375l7.125-56.992188 15.875 1.984375-6.875 55.007813h14.9375c13.253906 0 24-10.746094 24-24v-71.289063c-4.957031 1.140625-9.636719 3.253906-13.769531 6.226563-8.804688 6.296874-19.40625 9.589843-30.230469 9.382812zm0 0"/><path d="m140.015625 392.574219c.269531-.921875.703125-1.789063 1.28125-2.558594l20.871094-27.839844c1.738281-2.289062 2.074219-5.347656.871093-7.960937-1.152343-2.671875-2.238281-5.269532-3.246093-7.949219-.984375-2.710937-3.386719-4.65625-6.242188-5.050781l-34.527343-4.957032c-3.9375-.570312-6.855469-3.945312-6.855469-7.921874v-48c0-3.976563 2.917969-7.351563 6.855469-7.921876l34.480468-4.957031c2.855469-.371093 5.269532-2.292969 6.273438-4.992187 1.023437-2.738282 2.109375-5.335938 3.199218-7.863282 1.25-2.632812.945313-5.738281-.800781-8.074218l-20.878906-27.871094c-2.390625-3.183594-2.078125-7.640625.734375-10.457031l34-34c2.816406-2.8125 7.273438-3.125 10.457031-.734375l27.839844 20.871094c2.285156 1.742187 5.351563 2.078124 7.960937.871093 2.671876-1.152343 5.269532-2.238281 7.949219-3.246093 2.710938-.984376 4.65625-3.386719 5.050781-6.242188l4.589844-31.941406c-12.3125-6.222656-25.917968-9.457032-39.710937-9.441406h-112c-48.578125.058593-87.941407 39.421874-88 88v112c.039062 30.910156 25.089843 55.960937 56 56h85.734375c-.367188-.4375-.683594-.914063-.941406-1.425782-.214844-.273437-.40625-.566406-.578126-.871094-.222656-.585937-.375-1.195312-.453124-1.816406-.089844-.285156-.160157-.582031-.210938-.878906-.011719-.644531.054688-1.289062.203125-1.917969.015625-.285156.046875-.570312.09375-.851562zm0 0"/><path d="m204.167969 401.9375.742187-.53125c6.941406-5.160156 16.144532-6.125 24-2.511719l.761719.335938c1.238281.539062 2.511719 1.089843 3.832031 1.554687 1.105469.453125 1.601563.6875 2.0625.847656 8.339844 2.988282 14.332032 10.359376 15.546875 19.136719l4 27.566407h34.144531l4-27.617188c1.199219-8.679688 7.089844-15.988281 15.316407-19.007812 2.402343-.894532 4.746093-1.886719 7.035156-2.878907 7.917969-3.589843 17.167969-2.539062 24.085937 2.726563l22.25 16.6875 24.183594-24.183594-16.761718-22.285156c-5.25-6.941406-6.273438-16.199219-2.671876-24.121094.976563-2.265625 1.960938-4.601562 2.863282-7.015625 3.039062-8.21875 10.359375-14.089844 19.042968-15.265625l27.566407-4v-34.109375l-27.617188-4c-8.679687-1.203125-15.988281-7.09375-19.007812-15.320313-.894531-2.402343-1.886719-4.746093-2.878907-7.035156-3.582031-7.917968-2.535156-17.167968 2.726563-24.085937l16.6875-22.25-24.183594-24.183594-22.285156 16.746094c-6.96875 5.261719-16.261719 6.277343-24.203125 2.640625-2.132812-.929688-4.484375-1.921875-6.933594-2.832032-8.21875-3.039062-14.089844-10.359374-15.265625-19.042968l-3.96875-27.566406h-34.140625l-4 27.617187c-1.203125 8.679687-7.09375 15.988281-15.320312 19.007813-2.402344.894531-4.746094 1.886718-7.035156 2.878906-7.921876 3.574218-17.164063 2.527344-24.085938-2.726563l-22.25-16.6875-24.183594 24.183594 16.746094 22.285156c5.265625 6.96875 6.28125 16.261719 2.640625 24.203125-.929687 2.132813-1.921875 4.484375-2.832031 6.933594-3.039063 8.21875-10.359375 14.089844-19.042969 15.265625l-27.566406 4v34.144531l27.617187 4c8.679688 1.199219 15.988282 7.089844 19.007813 15.320313.894531 2.398437 1.886719 4.742187 2.871093 7.03125 3.585938 7.917969 2.542969 17.167969-2.71875 24.085937l-16.6875 22.25 24.183594 24.183594zm68-177.601562c44.183593 0 80 35.816406 80 80 0 44.183593-35.816407 80-80 80-44.183594 0-80-35.816407-80-80 .046875-44.164063 35.835937-79.953126 80-80zm0 0"/><path d="m272.167969 368.335938c35.347656 0 64-28.652344 64-64 0-35.347657-28.652344-64-64-64-35.347657 0-64 28.652343-64 64 .039062 35.328124 28.671875 63.960937 64 64zm8-56h-16c-13.253907 0-24-10.746094-24-24 0-13.253907 10.746093-24 24-24v-8h16v8c13.253906 0 24 10.746093 24 24h-16c0-4.417969-3.582031-8-8-8h-16c-4.417969 0-8 3.582031-8 8 0 4.417968 3.582031 8 8 8h16c13.253906 0 24 10.746093 24 24 0 13.253906-10.746094 24-24 24v8h-16v-8c-13.253907 0-24-10.746094-24-24h16c0 4.417968 3.582031 8 8 8h16c4.417969 0 8-3.582032 8-8 0-4.417969-3.582031-8-8-8zm0 0"/></svg>