<?xml version="1.0" encoding="iso-8859-1"?>
<!-- Generator: Adobe Illustrator 16.0.0, SVG Export Plug-In . SVG Version: 6.00 Build 0)  -->
<!DOCTYPE svg PUBLIC "-//W3C//DTD SVG 1.1//EN" "http://www.w3.org/Graphics/SVG/1.1/DTD/svg11.dtd">
<svg version="1.1" id="Capa_1" xmlns="http://www.w3.org/2000/svg" xmlns:xlink="http://www.w3.org/1999/xlink" x="0px" y="0px"
	 width="612.224px" height="612.224px" viewBox="0 0 612.224 612.224" style="enable-background:new 0 0 612.224 612.224;"
	 xml:space="preserve">
<g>
	<path d="M599.654,364.186h-93.285V282.04h93.285c6.869,0,12.457-5.588,12.457-12.458c0-6.869-5.552-12.457-12.457-12.457h-93.285
		V12.503c0-6.869-5.553-12.457-12.457-12.457c-6.87,0-12.458,5.588-12.458,12.457v244.658H296.128L140.379,5.919
		c-2.99-4.733-8.756-7.011-13.988-5.41c-5.338,1.495-9.04,6.406-9.04,11.958v244.658H12.533c-6.905,0-12.457,5.588-12.457,12.457
		c0,6.87,5.552,12.458,12.457,12.458h104.818v82.146H12.533c-6.869,0-12.457,5.588-12.457,12.457S5.628,389.1,12.533,389.1h104.818
		v210.632c0,6.869,5.552,12.457,12.457,12.457c6.869,0,12.457-5.588,12.457-12.457V389.1h206.397l134.679,217.216
		c2.313,3.702,6.371,5.908,10.606,5.908c1.139,0,2.313-0.142,3.417-0.498c5.339-1.495,9.04-6.406,9.04-11.959V389.135h93.286
		c6.869,0,12.457-5.588,12.457-12.457C612.076,369.773,606.523,364.186,599.654,364.186z M142.229,56.21l124.571,200.915H142.229
		V56.21z M142.229,364.186V282.04h140.054l50.932,82.146H142.229z M481.454,556.024L377.954,389.1h103.5V556.024z M481.454,364.186
		H362.507L311.61,282.04h169.844V364.186z"/>
</g>
<g>
</g>
<g>
</g>
<g>
</g>
<g>
</g>
<g>
</g>
<g>
</g>
<g>
</g>
<g>
</g>
<g>
</g>
<g>
</g>
<g>
</g>
<g>
</g>
<g>
</g>
<g>
</g>
<g>
</g>
</svg>
